<?xml version="1.0" encoding="utf-8"?>
<!-- Generator: Adobe Illustrator 24.1.0, SVG Export Plug-In . SVG Version: 6.00 Build 0)  -->
<svg version="1.1" id="Layer_1" xmlns="http://www.w3.org/2000/svg" xmlns:xlink="http://www.w3.org/1999/xlink" x="0px" y="0px"
	 viewBox="0 0 25 25" style="enable-background:new 0 0 25 25;" xml:space="preserve">
<style type="text/css">
	.st0{fill:#00C8AC;}
</style>
<path class="st0" d="M17,7.8c0.5-0.4,1.2-0.4,1.7,0c0.4,0.4,0.4,1.1,0,1.6l-6.2,7.8c-0.4,0.5-1.2,0.5-1.7,0.1c0,0,0,0,0,0l-4.1-4.1
	c-0.5-0.4-0.5-1.2-0.1-1.7c0.4-0.5,1.2-0.5,1.7-0.1c0,0,0,0,0.1,0.1l3.3,3.3L17,7.8C17,7.8,17,7.8,17,7.8L17,7.8z"/>
</svg>
