<?xml version="1.0" encoding="utf-8"?>
<!-- Generator: Adobe Illustrator 24.1.0, SVG Export Plug-In . SVG Version: 6.00 Build 0)  -->
<svg version="1.1" id="Layer_1" xmlns="http://www.w3.org/2000/svg" xmlns:xlink="http://www.w3.org/1999/xlink" x="0px" y="0px"
	 viewBox="0 0 140 89" style="enable-background:new 0 0 140 89;" xml:space="preserve">
<style type="text/css">
	.st0{fill:#86BC24;}
	.st1{fill:#0F0B0B;}
</style>
<path class="st0" d="M125.34,52.79c0-1.81,1.47-3.28,3.28-3.28s3.28,1.47,3.28,3.28s-1.47,3.28-3.28,3.28S125.34,54.6,125.34,52.79"
	/>
<path class="st1" d="M15.77,33.02H8.1v22.69h7.17c3.69,0,6.55-1.02,8.59-3.07c2.03-2.05,3.05-4.96,3.05-8.75
	c0-3.52-0.97-6.21-2.9-8.08C22.07,33.95,19.33,33.02,15.77,33.02z M19.42,49.07c-0.85,1.08-2.18,1.62-4,1.62h-1.33V37.98h1.74
	c1.64,0,2.86,0.5,3.66,1.5s1.2,2.54,1.2,4.62C20.69,46.33,20.27,47.98,19.42,49.07z"/>
<rect x="46.76" y="32.93" class="st1" width="5.7" height="22.78"/>
<path class="st1" d="M67.28,39.54c-1.24-0.71-2.68-1.06-4.3-1.06c-2.63,0-4.67,0.76-6.12,2.29c-1.45,1.53-2.18,3.67-2.18,6.43
	c0,2.7,0.75,4.84,2.23,6.42C58.39,55.21,60.39,56,62.9,56c2.61,0,4.65-0.77,6.1-2.32c1.45-1.54,2.18-3.7,2.18-6.47
	c0-1.76-0.34-3.3-1.02-4.63C69.49,41.26,68.52,40.25,67.28,39.54z M64.84,50.53c-0.37,0.76-1,1.14-1.88,1.14
	c-0.89,0-1.53-0.38-1.91-1.14c-0.38-0.76-0.57-1.87-0.57-3.32c-0.01-1.45,0.19-2.54,0.58-3.28c0.38-0.73,1-1.1,1.88-1.1
	c0.9,0,1.53,0.37,1.9,1.11c0.37,0.73,0.55,1.82,0.55,3.27C65.39,48.66,65.2,49.77,64.84,50.53z"/>
<rect x="73.45" y="38.79" class="st1" width="5.7" height="16.92"/>
<rect x="73.44" y="32.93" class="st1" width="5.7" height="3.81"/>
<path class="st1" d="M89.17,49.77v-6.59h3.64V38.8h-3.64v-5.32l-5.75,1v4.32h-2v4.37h2v6.98c0,1.99,0.43,3.47,1.27,4.43
	c0.84,0.96,2.22,1.44,4.14,1.44c0.93,0,1.75-0.07,2.44-0.22c0.7-0.14,1.43-0.38,2.2-0.72v-4.26c-1.07,0.38-1.99,0.58-2.76,0.58
	C89.68,51.4,89.16,50.85,89.17,49.77z"/>
<path class="st1" d="M102.36,49.76v-6.59H106v-4.38h-3.63v-5.32l-5.75,0.93v4.4h-2v4.37h2v6.98c0,1.99,0.42,3.47,1.27,4.43
	c0.84,0.96,2.23,1.44,4.14,1.44c0.93,0,1.74-0.07,2.44-0.22c0.7-0.14,1.43-0.38,2.2-0.72v-4.26c-1.07,0.38-1.99,0.58-2.76,0.58
	C102.88,51.4,102.36,50.85,102.36,49.76z"/>
<path class="st1" d="M123.94,46.22c0-2.49-0.68-4.41-2.03-5.74c-1.36-1.33-3.28-1.99-5.77-1.99c-2.62,0-4.63,0.76-6.04,2.29
	c-1.41,1.53-2.12,3.72-2.12,6.58c0,2.77,0.76,4.9,2.28,6.4s3.66,2.25,6.41,2.25c1.32,0,2.46-0.09,3.41-0.27s1.86-0.5,2.75-0.96
	l-0.88-3.81c-0.65,0.26-1.26,0.47-1.84,0.6c-0.84,0.19-1.76,0.29-2.76,0.29c-1.1,0-1.97-0.27-2.6-0.81
	c-0.64-0.54-0.98-1.28-1.01-2.23h10.2V46.22z M113.86,45.15c0.08-0.93,0.34-1.61,0.79-2.04c0.45-0.43,1.01-0.65,1.68-0.65
	c0.73,0,1.31,0.24,1.74,0.73s0.66,1.14,0.68,1.96H113.86z"/>
<path class="st1" d="M36.75,38.49c-2.62,0-4.63,0.76-6.04,2.29c-1.41,1.53-2.12,3.72-2.12,6.58c0,2.77,0.76,4.9,2.28,6.4
	s3.66,2.25,6.41,2.25c1.32,0,2.46-0.09,3.41-0.27s1.86-0.5,2.76-0.96l-0.88-3.81c-0.65,0.26-1.26,0.47-1.84,0.6
	c-0.84,0.19-1.76,0.29-2.76,0.29c-1.1,0-1.97-0.27-2.6-0.81c-0.64-0.54-0.98-1.28-1.01-2.23h10.2v-2.6
	c-0.01-2.49-0.68-4.41-2.04-5.74C41.16,39.15,39.24,38.49,36.75,38.49z M34.48,45.15c0.08-0.93,0.34-1.61,0.79-2.04
	s1.01-0.65,1.69-0.65c0.73,0,1.31,0.24,1.74,0.73s0.66,1.14,0.68,1.96H34.48z"/>
</svg>
