<?xml version="1.0" encoding="utf-8"?>
<!-- Generator: Adobe Illustrator 24.1.0, SVG Export Plug-In . SVG Version: 6.00 Build 0)  -->
<svg version="1.1" id="Layer_1" xmlns="http://www.w3.org/2000/svg" xmlns:xlink="http://www.w3.org/1999/xlink" x="0px" y="0px"
	 viewBox="0 0 140 89" style="enable-background:new 0 0 140 89;" xml:space="preserve">
<style type="text/css">
	.st0{fill:#005A9B;}
</style>
<path class="st0" d="M80.56,47.09c3.89,0,7.01-2.92,7.01-6.77c0-3.85-3.12-6.77-7.01-6.77c-3.89,0-7.01,2.92-7.01,6.77
	C73.55,44.18,76.67,47.09,80.56,47.09z M80.56,37.08c1.8,0,3.28,1.47,3.28,3.24c0,1.78-1.48,3.24-3.28,3.24
	c-1.8,0-3.28-1.47-3.28-3.24C77.28,38.55,78.77,37.08,80.56,37.08z"/>
<path class="st0" d="M97.96,42.45c1.26-0.86,2.25-2.14,2.25-3.88c0-2.71-2.18-4.71-4.93-4.71h-5.95V46.8h3.56v-3.52h1.67l1.62,3.52
	h3.99L97.96,42.45z M95.27,40.08h-2.39v-3.06h2.39c0.8,0,1.33,0.9,1.33,1.54C96.6,39.2,96.07,40.08,95.27,40.08z"/>
<rect x="102.37" y="33.85" class="st0" width="3.56" height="12.94"/>
<path class="st0" d="M113.31,33.85l-6,12.95h3.81l0.63-1.47h4.45l0.63,1.47h3.81l-6-12.95H113.31z M112.84,42.26l1.1-2.52h0.07
	l1.1,2.52H112.84z"/>
<path class="st0" d="M65.65,46.8h3.56v-9.77h3.57v-3.18h-8.61l8.36-18.05H19.36l8.42,18.16h3.92l3.22,6.95l3.22-6.95h3.93
	l-5.89,12.71h-2.51l12.28,26.51l12.57-27.12c-0.97,0.56-2.11,0.89-3.31,0.89c-3.8,0-6.81-2.86-6.81-6.65s3.02-6.65,6.81-6.65
	c2.42,0,4.54,1.31,5.7,3.24l-2.97,1.78c-0.56-0.91-1.58-1.56-2.73-1.56c-1.76,0-3.19,1.44-3.19,3.19c0,1.75,1.42,3.19,3.19,3.19
	c1.15,0,2.17-0.63,2.73-1.56l1.95,1.17l2.82-6.09h2.95V46.8z M46.77,46.68h-3.63V33.97h3.63V46.68z"/>
<path class="st0" d="M67.76,57.49c-0.83,0-1.6-0.32-2.06-0.7l-0.67,1.04c0.69,0.56,1.75,0.85,2.73,0.85c1.39,0,2.65-0.68,2.65-2.11
	c0-1.13-0.91-1.62-2.06-1.81l-0.36-0.06c-0.78-0.13-1.34-0.27-1.34-0.75c0-0.49,0.51-0.78,1.24-0.78c0.71,0,1.33,0.24,1.84,0.55
	l0.61-1.05c-0.81-0.49-1.57-0.69-2.47-0.69c-1.38,0-2.58,0.7-2.58,2.05c0,1.17,0.83,1.67,1.97,1.85l0.41,0.06
	c0.9,0.14,1.37,0.31,1.37,0.76C69.03,57.2,68.48,57.49,67.76,57.49z"/>
<path class="st0" d="M74.79,58.2l-0.44-0.94c-0.25,0.15-0.56,0.29-0.84,0.29c-0.38,0-0.67-0.2-0.67-0.76v-1.64h1.62v-1.07h-1.62
	v-1.33h-1.21v1.33h-0.87v1.07h0.87v1.73c0,1.16,0.57,1.79,1.68,1.79C73.94,58.67,74.4,58.47,74.79,58.2z"/>
<path class="st0" d="M79.69,58.56v-4.48h-1.18v0.49c-0.3-0.37-0.73-0.61-1.34-0.61c-1.23,0-2.17,1.01-2.17,2.36
	c0,1.35,0.93,2.36,2.17,2.36c0.62,0,1.05-0.25,1.34-0.61v0.5H79.69z M77.39,57.55c-0.71,0-1.16-0.55-1.16-1.23s0.45-1.23,1.16-1.23
	c0.69,0,1.16,0.53,1.16,1.23C78.55,57.02,78.08,57.55,77.39,57.55z"/>
<path class="st0" d="M82.87,58.67c0.64,0,1.09-0.2,1.49-0.47l-0.44-0.94c-0.25,0.15-0.56,0.29-0.84,0.29c-0.37,0-0.67-0.2-0.67-0.76
	v-1.64h1.62v-1.07H82.4v-1.33h-1.21v1.33h-0.86v1.07h0.86v1.73C81.19,58.05,81.76,58.67,82.87,58.67z"/>
<path class="st0" d="M88.1,57.22c-0.32,0.27-0.74,0.43-1.13,0.43c-0.57,0-1.02-0.28-1.15-0.93h3.18c0.01-0.1,0.02-0.27,0.02-0.41
	c0-1.4-0.89-2.35-2.18-2.35c-1.34,0-2.27,0.96-2.27,2.37c0,1.41,0.95,2.35,2.33,2.35c0.75,0,1.4-0.21,1.91-0.68L88.1,57.22z
	 M86.83,55c0.52,0,0.86,0.32,0.98,0.9h-1.98C85.92,55.34,86.26,55,86.83,55z"/>
<path class="st0" d="M68.57,63.29v1.08h1.65c-0.17,0.92-0.79,1.43-1.84,1.43c-1.12,0-2.02-0.83-2.02-2.15
	c0-1.26,0.86-2.13,2.04-2.13c0.66,0,1.2,0.26,1.56,0.68l0.93-0.91c-0.57-0.62-1.43-0.99-2.46-0.99c-1.99,0-3.42,1.4-3.42,3.36
	c0,2.09,1.59,3.35,3.39,3.35c1.84,0,3.16-1.38,3.16-3.34c0-0.12,0-0.24-0.02-0.37H68.57z"/>
<path class="st0" d="M74.59,62.28c-1.39,0-2.42,1.01-2.42,2.36c0,1.35,1.03,2.36,2.42,2.36c1.4,0,2.43-1.01,2.43-2.36
	C77.02,63.29,75.99,62.28,74.59,62.28z M74.59,65.87c-0.68,0-1.19-0.51-1.19-1.23c0-0.73,0.51-1.24,1.19-1.24
	c0.68,0,1.19,0.51,1.19,1.24C75.78,65.37,75.27,65.87,74.59,65.87z"/>
<polygon class="st0" points="79.61,65.61 78.45,62.4 77.14,62.4 78.91,66.88 80.3,66.88 82.06,62.4 80.78,62.4 "/>
<path class="st0" d="M84.45,62.28c-1.34,0-2.27,0.96-2.27,2.37c0,1.41,0.95,2.34,2.33,2.34c0.75,0,1.4-0.21,1.91-0.68l-0.71-0.78
	c-0.32,0.27-0.74,0.43-1.13,0.43c-0.57,0-1.02-0.28-1.15-0.93h3.18c0.01-0.1,0.02-0.27,0.02-0.41
	C86.62,63.24,85.73,62.28,84.45,62.28z M83.43,64.22c0.11-0.56,0.44-0.9,1.01-0.9c0.52,0,0.86,0.32,0.98,0.9H83.43z"/>
<path class="st0" d="M88.59,62.89V62.4h-1.17v4.48h1.21v-2.44c0-0.67,0.38-1.01,0.94-1.01c0.25,0,0.53,0.06,0.73,0.14l0.18-1.2
	c-0.17-0.06-0.37-0.1-0.63-0.1C89.31,62.28,88.88,62.47,88.59,62.89z"/>
<path class="st0" d="M93.62,62.28c-0.51,0-1,0.17-1.32,0.65V62.4h-1.17v4.48h1.21v-2.46c0-0.68,0.43-1.01,0.95-1.01
	c0.55,0,0.87,0.36,0.87,1v2.47h1.21v-2.85C95.36,62.99,94.63,62.28,93.62,62.28z"/>
<path class="st0" d="M101.9,62.28c-0.59,0-1.17,0.2-1.52,0.77c-0.3-0.48-0.83-0.77-1.48-0.77c-0.51,0-1,0.17-1.32,0.65V62.4H96.4
	v4.48h1.21v-2.46c0-0.68,0.43-1.01,0.95-1.01c0.55,0,0.87,0.36,0.87,1v2.47h1.21v-2.46c0-0.68,0.43-1.01,0.95-1.01
	c0.55,0,0.87,0.36,0.87,1v2.47h1.2v-2.85C103.66,62.99,102.95,62.28,101.9,62.28z"/>
<path class="st0" d="M106.7,62.28c-1.34,0-2.27,0.96-2.27,2.37c0,1.41,0.95,2.34,2.33,2.34c0.75,0,1.4-0.21,1.91-0.68l-0.71-0.78
	c-0.32,0.27-0.74,0.43-1.13,0.43c-0.57,0-1.02-0.28-1.15-0.93h3.18c0.01-0.1,0.02-0.27,0.02-0.41
	C108.87,63.24,107.99,62.28,106.7,62.28z M105.68,64.22c0.11-0.56,0.44-0.9,1.01-0.9c0.52,0,0.86,0.32,0.98,0.9H105.68z"/>
<path class="st0" d="M112.17,62.28c-0.51,0-1,0.17-1.32,0.65V62.4h-1.17v4.48h1.21v-2.46c0-0.68,0.43-1.01,0.95-1.01
	c0.55,0,0.87,0.36,0.87,1v2.47h1.21v-2.85C113.91,62.99,113.18,62.28,112.17,62.28z"/>
<path class="st0" d="M117.21,65.87c-0.37,0-0.67-0.2-0.67-0.76v-1.64h1.62V62.4h-1.62v-1.33h-1.21v1.33h-0.86v1.07h0.86v1.73
	c0,1.16,0.57,1.79,1.68,1.79c0.64,0,1.09-0.2,1.48-0.47l-0.44-0.94C117.8,65.73,117.49,65.87,117.21,65.87z"/>
</svg>
