<?xml version="1.0" encoding="utf-8"?>
<!-- Generator: Adobe Illustrator 24.1.0, SVG Export Plug-In . SVG Version: 6.00 Build 0)  -->
<svg version="1.1" id="Layer_1" xmlns="http://www.w3.org/2000/svg" xmlns:xlink="http://www.w3.org/1999/xlink" x="0px" y="0px"
	 viewBox="0 0 140 89" style="enable-background:new 0 0 140 89;" xml:space="preserve">
<style type="text/css">
	.st0{fill:url(#SVGID_1_);}
	.st1{fill:url(#SVGID_2_);}
	.st2{fill:url(#SVGID_3_);}
	.st3{fill:url(#SVGID_4_);}
	.st4{fill:#2B3990;}
	.st5{fill:#BE1E2D;}
</style>
<linearGradient id="SVGID_1_" gradientUnits="userSpaceOnUse" x1="-10389.1367" y1="661.6487" x2="-10378.1641" y2="641.6245" gradientTransform="matrix(-1 0 0 1 -10324.2266 -630)">
	<stop  offset="0" style="stop-color:#1B75BC"/>
	<stop  offset="0.5153" style="stop-color:#2B3990"/>
</linearGradient>
<path class="st0" d="M67.09,27.31l-6.03,3.91l-5.56-3.58c-0.66-0.4-1.19-1.39-1.19-2.19v-9.01c0-0.79,0.53-1.06,1.19-0.66
	l11.92,7.55C69.47,24.72,68.74,26.18,67.09,27.31z"/>
<linearGradient id="SVGID_2_" gradientUnits="userSpaceOnUse" x1="-10405.7549" y1="675.0984" x2="-10397.877" y2="657.9786" gradientTransform="matrix(-1 0 0 1 -10324.2266 -630)">
	<stop  offset="0.1411" style="stop-color:#2B3990"/>
	<stop  offset="0.9509" style="stop-color:#1B75BC"/>
</linearGradient>
<path class="st1" d="M77.88,30.55l5.63,3.58c0.66,0.4,1.19,1.39,1.19,2.19v9.01c0,0.79-0.53,1.06-1.19,0.66l-11.92-7.55
	c-2.05-1.39-1.32-2.85,0.33-3.91L77.88,30.55z"/>
<linearGradient id="SVGID_3_" gradientUnits="userSpaceOnUse" x1="-10394.1416" y1="661.9916" x2="-10423.4229" y2="635.0112" gradientTransform="matrix(-1 0 0 1 -10324.2266 -630)">
	<stop  offset="0" style="stop-color:#ED1C24"/>
	<stop  offset="1" style="stop-color:#902322"/>
</linearGradient>
<path class="st2" d="M83.44,15.25c0.66-0.4,1.19-0.13,1.19,0.66v8.94c0,0.79-0.53,1.79-1.19,2.19l-5.63,3.51l0,0l-6.03,3.91
	c-0.93,0.66-1.59,1.39-1.59,2.19V26.31c0-2.05,0.93-3.11,2.05-3.97L83.44,15.25z"/>
<linearGradient id="SVGID_4_" gradientUnits="userSpaceOnUse" x1="-10375.9785" y1="675.5873" x2="-10401.1191" y2="652.4208" gradientTransform="matrix(-1 0 0 1 -10324.2266 -630)">
	<stop  offset="0.2515" style="stop-color:#ED1C24"/>
	<stop  offset="1" style="stop-color:#902322"/>
</linearGradient>
<path class="st3" d="M61.06,31.15l6.03-3.91c0.93-0.66,1.59-1.39,1.59-2.19v10.33c0,2.05-0.93,3.11-2.05,3.97l-11.13,7.1
	c-0.66,0.4-1.19,0.13-1.19-0.66v-8.94c0-0.79,0.53-1.79,1.19-2.19L61.06,31.15L61.06,31.15z"/>
<path class="st4" d="M25.56,56.18v-6.69h2.58v6.62c0,1.92,0.93,2.91,2.52,2.91s2.52-0.93,2.52-2.78v-6.76h2.58v6.62
	c0,3.58-1.99,5.3-5.17,5.3C27.48,61.35,25.56,59.63,25.56,56.18z"/>
<path class="st4" d="M38.34,49.49h2.58v5.1l4.77-5.1h3.11l-4.77,4.97L49,61.22h-3.11l-3.64-4.97l-1.32,1.39v3.58h-2.58L38.34,49.49
	L38.34,49.49z"/>
<path class="st4" d="M55.63,49.49h8.94v2.32h-6.42v2.52h5.56v2.32h-5.56v4.5h-2.58V49.49H55.63z"/>
<path class="st4" d="M66.03,55.39L66.03,55.39c0-3.38,2.65-6.09,6.23-6.09c3.64,0,6.23,2.72,6.23,6.03v0.07
	c0,3.31-2.65,6.03-6.23,6.03C68.68,61.41,66.03,58.7,66.03,55.39z M75.83,55.39L75.83,55.39c0-2.05-1.46-3.71-3.58-3.71
	c-2.05,0-3.51,1.66-3.51,3.64v0.07c0,1.99,1.46,3.71,3.58,3.71C74.37,59.03,75.83,57.37,75.83,55.39z"/>
<path class="st4" d="M80.8,49.49h5.36c1.46,0,2.65,0.4,3.44,1.19c0.66,0.66,0.99,1.59,0.99,2.65v0.07c0,1.92-0.99,3.11-2.52,3.64
	l2.85,4.17h-2.98l-2.52-3.78h-2.05v3.78H80.8V49.49z M85.96,55.19c1.26,0,1.99-0.66,1.99-1.66v-0.07c0-1.13-0.79-1.66-2.05-1.66
	h-2.58v3.38L85.96,55.19L85.96,55.19z"/>
<path class="st4" d="M92.92,49.49h8.81v2.32h-6.29v2.32h5.5v2.32h-5.5v2.45h6.36v2.32h-8.94V49.49H92.92z"/>
<path class="st4" d="M114.24,49.49l-3.91,5.7l4.11,5.96h-2.98l-2.65-4.04l-2.65,4.04h-2.91l4.11-5.96l-3.91-5.76h2.98l2.45,3.78
	l2.52-3.78h2.85L114.24,49.49L114.24,49.49z"/>
<path class="st5" d="M29.73,65.06h0.93l3.97,8.74h-1.06l-0.99-2.32h-4.7l-1.06,2.32h-0.99L29.73,65.06z M32.18,70.62l-1.99-4.44
	l-1.99,4.44H32.18z"/>
<path class="st5" d="M40.73,65.12h1.06l2.45,7.22l2.38-7.29h0.79l2.38,7.29l2.45-7.22h1.06l-3.11,8.74h-0.86l-2.38-7.02l-2.38,7.02
	h-0.79L40.73,65.12z"/>
<path class="st5" d="M63.44,65.06h0.93l3.97,8.74h-1.06l-0.99-2.32h-4.7l-1.06,2.32h-0.99L63.44,65.06z M65.89,70.62l-1.99-4.44
	l-1.99,4.44H65.89z"/>
<path class="st5" d="M76.29,65.12H80c1.06,0,1.92,0.33,2.45,0.86c0.4,0.4,0.66,1.06,0.66,1.72l0,0c0,1.46-0.99,2.25-2.38,2.52
	l2.65,3.58h-1.19l-2.52-3.38h-2.45v3.38h-0.99v-8.68H76.29z M79.93,69.56c1.32,0,2.25-0.66,2.25-1.79l0,0
	c0-1.06-0.79-1.72-2.25-1.72h-2.65v3.51C77.29,69.56,79.93,69.56,79.93,69.56z"/>
<path class="st5" d="M91.46,65.12h3.05c2.72,0,4.64,1.85,4.64,4.3l0,0c0,2.45-1.85,4.37-4.64,4.37h-3.05V65.12z M92.45,66.05v6.89
	h2.05c2.19,0,3.58-1.46,3.58-3.44l0,0c0-1.92-1.39-3.44-3.58-3.44C94.5,66.05,92.45,66.05,92.45,66.05z"/>
<path class="st5" d="M106.69,72.54l0.6-0.73c0.93,0.79,1.79,1.26,2.98,1.26s1.92-0.6,1.92-1.46l0,0c0-0.79-0.46-1.26-2.25-1.66
	c-1.99-0.46-2.91-1.06-2.91-2.52l0,0c0-1.39,1.19-2.38,2.85-2.38c1.26,0,2.19,0.33,3.05,1.06l-0.6,0.73
	c-0.79-0.66-1.59-0.93-2.52-0.93c-1.13,0-1.85,0.6-1.85,1.39l0,0c0,0.79,0.46,1.26,2.38,1.72c1.92,0.4,2.85,1.13,2.85,2.45l0,0
	c0,1.46-1.26,2.45-2.98,2.45C108.88,73.93,107.75,73.53,106.69,72.54z"/>
</svg>
