<?xml version="1.0" encoding="utf-8"?>
<!-- Generator: Adobe Illustrator 24.1.0, SVG Export Plug-In . SVG Version: 6.00 Build 0)  -->
<svg version="1.1" id="Layer_1" xmlns="http://www.w3.org/2000/svg" xmlns:xlink="http://www.w3.org/1999/xlink" x="0px" y="0px"
	 viewBox="0 0 140 89" style="enable-background:new 0 0 140 89;" xml:space="preserve">
<style type="text/css">
	.st0{fill:#FFE504;}
	.st1{fill:#808080;}
	.st2{fill:none;stroke:#FFFFFF;stroke-width:8.117836e-03;stroke-miterlimit:10;stroke-opacity:0;}
</style>
<polygon class="st0" points="41.09,31.57 98.9,10.48 98.91,10.48 98.91,21.38 41.09,31.58 "/>
<polygon class="st1" points="41.56,70.52 41.56,40.57 58.57,40.57 62.52,47.45 50.52,47.45 50.52,52.39 61.4,52.39 61.4,58.7 
	50.52,58.7 50.52,63.64 65.54,63.64 65.54,70.52 "/>
<polygon class="st2" points="50.52,58.7 61.4,58.7 61.4,52.39 50.52,52.39 50.52,47.45 62.52,47.45 58.57,40.57 41.56,40.57 
	41.56,70.52 65.54,70.52 65.54,63.64 50.52,63.64 "/>
<polygon class="st1" points="71.85,70.52 71.85,58.7 61.4,40.57 71.33,40.57 76.37,50.38 81.46,40.57 91.3,40.57 80.8,58.7 
	80.8,70.52 "/>
<polygon class="st2" points="81.46,40.57 76.37,50.38 71.33,40.57 61.4,40.57 71.85,58.7 71.85,70.52 80.8,70.52 80.8,58.7 
	91.3,40.57 "/>
</svg>
