<?xml version="1.0" encoding="utf-8"?>
<!-- Generator: Adobe Illustrator 24.1.0, SVG Export Plug-In . SVG Version: 6.00 Build 0)  -->
<svg version="1.1" id="Layer_1" xmlns="http://www.w3.org/2000/svg" xmlns:xlink="http://www.w3.org/1999/xlink" x="0px" y="0px"
	 viewBox="0 0 140 89" style="enable-background:new 0 0 140 89;" xml:space="preserve">
<path d="M114,28.26c-0.02,0.03-0.03,0.07-0.05,0.1c-0.15,0.41-0.44,0.6-0.87,0.59c-1.03-0.02-2.06-0.03-3.08-0.05
	c-0.15,0-0.22,0.03-0.27,0.18c-3.64,9.96-7.28,19.92-10.93,29.88c-0.26,0.71-0.52,1.42-0.78,2.13c-0.18,0.49-0.38,0.62-0.92,0.63
	c-0.52,0-0.77-0.17-0.94-0.64c-1.61-4.61-3.22-9.21-4.84-13.82c-0.02-0.05-0.04-0.09-0.07-0.18c-0.13,0.35-0.24,0.67-0.36,0.98
	c-1.58,4.34-3.16,8.67-4.74,13.01c-0.22,0.6-0.99,0.87-1.53,0.51c-0.13-0.09-0.24-0.26-0.3-0.42c-0.98-2.76-1.95-5.52-2.93-8.28
	c-1.77-5.03-3.55-10.06-5.32-15.08c-1.02-2.89-2.04-5.79-3.06-8.68c-0.06-0.16-0.12-0.21-0.29-0.21c-0.99,0.02-1.98,0.03-2.97,0.05
	c-0.51,0.01-0.84-0.22-0.94-0.69c-0.1-0.48,0.11-0.88,0.57-1.07c0.02-0.01,0.03-0.02,0.05-0.03c0.13,0,0.25,0,0.38,0
	c0.29,0.04,0.58,0.09,0.87,0.11c0.87,0.05,1.75,0.11,2.62,0.12c1.31,0.01,2.63,0.01,3.94-0.03c0.57-0.02,1.14-0.13,1.72-0.2
	c0.13,0,0.25,0,0.38,0c0.02,0.01,0.04,0.03,0.06,0.04c0.32,0.12,0.5,0.35,0.54,0.67c0.05,0.36-0.02,0.71-0.34,0.93
	c-0.12,0.09-0.29,0.13-0.44,0.14c-0.25,0.02-0.51-0.01-0.76-0.01c-0.44,0-0.88,0-1.34,0c3.04,8.78,6.08,17.56,9.13,26.39
	c0.04-0.1,0.06-0.15,0.08-0.2c1.31-3.57,2.61-7.14,3.91-10.72c0.04-0.11,0.04-0.25,0-0.36c-1.75-4.99-3.52-9.97-5.27-14.96
	c-0.05-0.14-0.11-0.2-0.27-0.19c-0.59,0.03-1.18,0.04-1.77,0.05c-0.5,0.01-0.81-0.26-0.88-0.75c-0.07-0.5,0.12-0.82,0.62-1.04
	c0.13,0,0.25,0,0.38,0c0.12,0.03,0.25,0.07,0.37,0.07c1,0.07,2,0.17,3,0.18c3.62,0.02,7.25,0.01,10.87,0c0.75,0,1.5-0.03,2.24-0.08
	c0.43-0.03,0.85-0.12,1.28-0.18c0.13,0,0.25,0,0.38,0c0.01,0.01,0.03,0.03,0.04,0.03c0.46,0.2,0.67,0.6,0.56,1.08
	c-0.1,0.46-0.44,0.69-0.95,0.68c-0.89-0.02-1.78-0.03-2.67-0.05c-0.16,0-0.23,0.05-0.28,0.2c-1.5,4.09-3,8.18-4.49,12.27
	c-0.04,0.1-0.03,0.23,0,0.32c1.44,4.18,2.89,8.35,4.33,12.53c0.12,0.36,0.25,0.71,0.39,1.11c3.23-8.83,6.44-17.61,9.67-26.42
	c-0.1,0-0.17,0-0.23,0c-0.95,0.02-1.9,0.03-2.86,0.05c-0.45,0.01-0.78-0.24-0.88-0.68c-0.11-0.5,0.09-0.87,0.61-1.12
	c0.13,0,0.25,0,0.38,0c0.46,0.06,0.91,0.16,1.37,0.19c1.8,0.11,3.6,0.1,5.4,0c0.48-0.03,0.95-0.12,1.43-0.18c0.13,0,0.25,0,0.38,0
	c0.34,0.11,0.54,0.35,0.65,0.69C114,27.98,114,28.12,114,28.26z M92.29,38.57c0.02,0,0.03,0,0.05,0c1.17-3.22,2.33-6.43,3.5-9.66
	c-2.31,0-4.59,0-6.9,0C90.06,32.15,91.17,35.36,92.29,38.57z"/>
<path d="M27.07,27.16c0.4,0.05,0.8,0.12,1.21,0.14c0.98,0.05,1.97,0.11,2.95,0.1c2.24-0.01,4.48-0.08,6.72-0.08
	c1.99,0,3.95,0.28,5.81,1.02c1.41,0.57,2.66,1.38,3.6,2.6c0.93,1.2,1.39,2.57,1.44,4.08c0.08,2.56-1.06,4.53-2.97,6.12
	c-0.85,0.71-1.82,1.23-2.87,1.57c-0.03,0.01-0.06,0.02-0.11,0.05c0.41,0.11,0.79,0.19,1.17,0.31c2.36,0.73,4.29,2.06,5.63,4.17
	c0.96,1.5,1.36,3.15,1.28,4.93c-0.07,1.58-0.44,3.07-1.3,4.42c-0.95,1.49-2.29,2.49-3.89,3.17c-1.32,0.56-2.71,0.85-4.13,0.99
	c-1.6,0.16-3.2,0.1-4.79,0.04c-1.24-0.04-2.47-0.12-3.71-0.12c-1.58,0-3.16,0.04-4.74,0.08c-0.41,0.01-0.82,0.07-1.23,0.12
	c-0.64,0.08-0.88-0.04-1.13-0.62c0-0.15,0-0.3,0-0.46c0.01-0.02,0.03-0.04,0.04-0.06c0.16-0.45,0.41-0.63,0.89-0.62
	c1.05,0.01,2.11,0.03,3.16,0.04c0.07,0,0.15,0,0.22,0c0-10.09,0-20.16,0-30.24c-0.09,0-0.16,0-0.24,0
	c-1.07,0.01-2.15,0.03-3.22,0.04c-0.36,0-0.63-0.18-0.77-0.51c-0.02-0.06-0.05-0.11-0.08-0.17c0-0.15,0-0.3,0-0.46
	c0.12-0.3,0.31-0.52,0.61-0.65C26.76,27.16,26.91,27.16,27.07,27.16z M34.47,58.82c0.06,0,0.1,0.01,0.13,0.01
	c1.73,0,3.47,0.01,5.2,0c0.87-0.01,1.73-0.1,2.58-0.3c1.74-0.42,2.95-1.42,3.5-3.15c0.28-0.88,0.39-1.78,0.44-2.7
	c0.06-1.18,0.02-2.36-0.29-3.51c-0.42-1.55-1.23-2.83-2.59-3.72c-1.3-0.85-2.75-1.16-4.27-1.18c-1.5-0.02-3,0-4.5,0
	c-0.07,0-0.14,0.01-0.21,0.01C34.47,49.12,34.47,53.96,34.47,58.82z M34.48,42.38c0.04,0.01,0.07,0.01,0.09,0.01
	c0.97,0,1.94,0.01,2.91-0.02c0.92-0.02,1.83-0.14,2.72-0.4c1.66-0.49,2.84-1.51,3.44-3.15c0.28-0.76,0.42-1.55,0.48-2.36
	c0.09-1.2,0.07-2.4-0.21-3.58c-0.38-1.57-1.31-2.63-2.84-3.16c-0.84-0.29-1.71-0.45-2.59-0.48c-1.28-0.04-2.56-0.04-3.85-0.05
	c-0.05,0-0.1,0.01-0.16,0.01C34.48,33.61,34.48,37.99,34.48,42.38z"/>
<path d="M107.29,61.84c-0.33-0.11-0.68-0.19-0.98-0.35c-1.07-0.59-1.57-1.83-1.24-3.03c0.31-1.13,1.39-1.94,2.58-1.92
	c1.23,0.02,2.27,0.86,2.55,2.04c0.35,1.49-0.62,2.96-2.13,3.23c-0.04,0.01-0.07,0.02-0.11,0.03
	C107.75,61.84,107.52,61.84,107.29,61.84z"/>
<path d="M65.2,42.82c0.27,0.08,0.51,0.14,0.75,0.21c2.32,0.76,4,2.27,5.16,4.39c0.85,1.55,1.25,3.21,1.16,4.98
	c-0.08,1.68-0.18,3.36-0.24,5.04c-0.02,0.43,0.01,0.88,0.1,1.3c0.18,0.87,0.79,1.23,1.66,1.02c0.76-0.18,1.15-0.66,1.18-1.45
	c0.02-0.51,0.39-0.9,0.86-0.89c0.45,0.01,0.84,0.43,0.82,0.93c-0.05,1.16-0.64,1.96-1.64,2.5c-0.74,0.4-1.53,0.45-2.35,0.38
	c-0.91-0.08-1.77-0.32-2.51-0.9c-0.68-0.54-1.11-1.26-1.42-2.06c-0.36-0.95-0.57-1.94-0.64-2.95c-0.09-1.2-0.13-2.39-0.16-3.59
	c-0.04-1.23-0.09-2.46-0.46-3.65c-0.4-1.31-1.11-2.39-2.34-3.06c-0.76-0.41-1.58-0.65-2.43-0.7c-1.03-0.06-2.07-0.05-3.1-0.07
	c-0.67-0.01-1.35,0-2.02,0c-0.07,0-0.14,0-0.22,0c0,4.97,0,9.92,0,14.89c0.46,0,0.9,0.01,1.35,0c0.71-0.01,1.42-0.03,2.13-0.04
	c0.47-0.01,0.83,0.4,0.83,0.92c0,0.51-0.35,0.88-0.83,0.86c-0.4-0.02-0.81-0.09-1.21-0.11c-0.78-0.05-1.56-0.1-2.34-0.11
	c-1.01-0.02-2.02-0.02-3.03-0.02c-1.46,0.01-2.92,0.03-4.37,0.24c-0.38,0.05-0.7-0.04-0.9-0.39c-0.19-0.32-0.16-0.78,0.08-1.08
	c0.16-0.21,0.37-0.32,0.64-0.32c1.08,0.02,2.16,0.03,3.24,0.05c0.07,0,0.15,0,0.24,0c0-10.08,0-20.13,0-30.21c-0.12,0-0.25,0-0.37,0
	c-1.02,0.02-2.03,0.04-3.05,0.05c-0.54,0.01-0.91-0.41-0.89-0.98c0.01-0.41,0.39-0.88,0.95-0.81c2.58,0.34,5.17,0.23,7.76,0.23
	c1.43,0,2.86-0.04,4.28,0.02c2.01,0.08,3.96,0.47,5.76,1.4c1.83,0.95,3.17,2.33,3.73,4.35c0.72,2.58,0.19,4.9-1.58,6.92
	c-1.21,1.37-2.7,2.29-4.5,2.68C65.26,42.79,65.24,42.8,65.2,42.82z M57.35,29.24c0,4.39,0,8.76,0,13.13
	c0.03,0.01,0.05,0.02,0.06,0.02c1.21,0,2.43,0.01,3.64-0.02c1.05-0.03,2.06-0.26,3-0.77c1.38-0.75,2.19-1.94,2.62-3.42
	c0.32-1.1,0.41-2.23,0.34-3.37c-0.04-0.7-0.1-1.41-0.24-2.09c-0.29-1.42-1.1-2.44-2.49-2.96c-0.93-0.35-1.91-0.48-2.89-0.5
	c-1.28-0.03-2.56-0.02-3.85-0.02C57.47,29.24,57.41,29.24,57.35,29.24z"/>
</svg>
