<?xml version="1.0" encoding="utf-8"?>
<!-- Generator: Adobe Illustrator 24.1.0, SVG Export Plug-In . SVG Version: 6.00 Build 0)  -->
<svg version="1.1" id="Layer_1" xmlns="http://www.w3.org/2000/svg" xmlns:xlink="http://www.w3.org/1999/xlink" x="0px" y="0px"
	 viewBox="0 0 140 89" style="enable-background:new 0 0 140 89;" xml:space="preserve">
<style type="text/css">
	.st0{fill:#151D52;}
	.st1{fill-rule:evenodd;clip-rule:evenodd;fill:url(#SVGID_1_);}
	.st2{fill-rule:evenodd;clip-rule:evenodd;fill:url(#SVGID_2_);}
	.st3{fill-rule:evenodd;clip-rule:evenodd;fill:url(#SVGID_3_);}
	.st4{fill-rule:evenodd;clip-rule:evenodd;fill:url(#SVGID_4_);}
	.st5{fill-rule:evenodd;clip-rule:evenodd;fill:url(#SVGID_5_);}
	.st6{fill-rule:evenodd;clip-rule:evenodd;fill:url(#SVGID_6_);}
</style>
<rect x="54.28" y="32.92" class="st0" width="1.2" height="10.65"/>
<path class="st0" d="M58.61,39.07v4.5h-1.17V35.7h1.17v1.37c0.62-1.02,1.52-1.54,2.69-1.54c0.93,0,1.67,0.29,2.21,0.86
	c0.54,0.57,0.81,1.34,0.81,2.29v4.88h-1.17v-4.59c0-0.74-0.19-1.32-0.57-1.74c-0.38-0.42-0.92-0.63-1.6-0.63s-1.24,0.23-1.69,0.68
	C58.83,37.74,58.61,38.34,58.61,39.07L58.61,39.07z"/>
<path class="st0" d="M68.64,42.23l2.66-6.53h1.26l-3.42,7.93h-1.03L64.7,35.7H66L68.64,42.23z"/>
<path class="st0" d="M73.96,39.2h5.07c-0.06-0.77-0.3-1.39-0.71-1.87c-0.46-0.54-1.05-0.81-1.79-0.81c-0.68,0-1.25,0.25-1.73,0.76
	C74.32,37.79,74.04,38.43,73.96,39.2z M73.96,40.07c0.08,0.82,0.39,1.48,0.93,1.96c0.51,0.47,1.12,0.7,1.84,0.7
	c0.94,0,1.77-0.37,2.48-1.11l0.73,0.65c-0.88,0.98-1.96,1.48-3.24,1.48c-1.11,0-2.03-0.38-2.77-1.14c-0.77-0.77-1.16-1.76-1.16-2.97
	c0-1.15,0.36-2.12,1.08-2.91c0.72-0.8,1.62-1.19,2.69-1.19c1.13,0,2.03,0.41,2.71,1.22c0.64,0.77,0.96,1.75,0.96,2.95
	c0,0.15-0.01,0.27-0.02,0.36C80.19,40.07,73.96,40.07,73.96,40.07z"/>
<path class="st0" d="M87.07,41.36c0,0.73-0.26,1.31-0.79,1.73s-1.2,0.63-2.01,0.63c-1.22,0-2.3-0.39-3.26-1.16l0.59-0.84
	c0.89,0.67,1.8,1,2.72,1c0.48,0,0.87-0.11,1.17-0.34c0.3-0.23,0.46-0.53,0.46-0.91v-0.03c0-0.35-0.2-0.65-0.59-0.88
	c-0.26-0.15-0.72-0.32-1.37-0.5c-0.82-0.23-1.41-0.47-1.76-0.7c-0.56-0.37-0.84-0.88-0.84-1.52v-0.03c0-0.67,0.25-1.21,0.75-1.63
	c0.5-0.42,1.14-0.62,1.92-0.62c1.01,0,1.96,0.29,2.83,0.87l-0.53,0.88c-0.78-0.51-1.56-0.76-2.33-0.76c-0.46,0-0.82,0.11-1.1,0.32
	s-0.42,0.49-0.42,0.82v0.03c0,0.33,0.21,0.61,0.62,0.84c0.24,0.13,0.71,0.3,1.4,0.52c0.79,0.24,1.36,0.49,1.72,0.73
	c0.54,0.39,0.81,0.89,0.81,1.52L87.07,41.36L87.07,41.36z"/>
<path class="st0" d="M90.22,36.74v4.59c0,0.87,0.44,1.31,1.32,1.31c0.39,0,0.77-0.09,1.14-0.27v1c-0.43,0.22-0.9,0.33-1.41,0.33
	c-1.48,0-2.22-0.74-2.22-2.22v-4.75h-1.1V35.7h1.1v-2.37h1.17v2.37h2.49v1.03h-2.49V36.74z"/>
<path class="st0" d="M100.22,37.1c0.68-1.04,1.6-1.57,2.77-1.57c0.9,0,1.61,0.28,2.14,0.85c0.52,0.57,0.78,1.34,0.78,2.31v4.87
	h-1.17v-4.59c0-0.76-0.18-1.35-0.54-1.76s-0.86-0.62-1.5-0.62c-0.62,0-1.14,0.22-1.55,0.65c-0.42,0.44-0.62,1.03-0.62,1.78v4.53
	h-1.16v-4.62c0-0.73-0.18-1.3-0.54-1.72c-0.36-0.42-0.85-0.62-1.48-0.62c-0.63,0-1.15,0.23-1.57,0.7s-0.62,1.06-0.62,1.78v4.49
	h-1.17V35.7h1.17v1.32c0.66-0.99,1.51-1.49,2.54-1.49C98.87,35.54,99.71,36.06,100.22,37.1L100.22,37.1z"/>
<path class="st0" d="M108.36,39.2h5.07c-0.06-0.77-0.3-1.39-0.71-1.87c-0.46-0.54-1.05-0.81-1.79-0.81c-0.68,0-1.26,0.25-1.73,0.76
	C108.71,37.79,108.44,38.43,108.36,39.2z M108.36,40.07c0.08,0.82,0.39,1.48,0.93,1.96c0.51,0.47,1.12,0.7,1.84,0.7
	c0.94,0,1.77-0.37,2.48-1.11l0.73,0.65c-0.88,0.98-1.96,1.48-3.24,1.48c-1.11,0-2.03-0.38-2.77-1.14c-0.77-0.77-1.16-1.76-1.16-2.97
	c0-1.15,0.36-2.12,1.08-2.91c0.72-0.8,1.62-1.19,2.69-1.19c1.13,0,2.03,0.41,2.71,1.22c0.64,0.77,0.96,1.75,0.96,2.95
	c0,0.15-0.01,0.27-0.02,0.36L108.36,40.07L108.36,40.07z"/>
<path class="st0" d="M117.04,39.07v4.5h-1.17V35.7h1.17v1.37c0.62-1.02,1.52-1.54,2.69-1.54c0.93,0,1.67,0.29,2.21,0.86
	s0.81,1.34,0.81,2.29v4.88h-1.17v-4.59c0-0.74-0.19-1.32-0.57-1.74c-0.38-0.42-0.92-0.63-1.6-0.63s-1.24,0.23-1.69,0.68
	C117.27,37.74,117.04,38.34,117.04,39.07z"/>
<path class="st0" d="M125.69,36.74v4.59c0,0.87,0.44,1.31,1.32,1.31c0.39,0,0.77-0.09,1.14-0.27v1c-0.43,0.22-0.9,0.33-1.41,0.33
	c-1.48,0-2.22-0.74-2.22-2.22v-4.75h-1.1V35.7h1.1v-2.37h1.17v2.37h2.49v1.03h-2.49V36.74z"/>
<path class="st0" d="M59.08,47.22v9.54h-1.22v-9.54h-3.57V46.1h8.37v1.11h-3.58V47.22z"/>
<path class="st0" d="M63.83,53.62v3.13h-1.17v-7.86h1.17v2.05c0.3-0.68,0.72-1.22,1.26-1.61c0.58-0.42,1.23-0.61,1.95-0.58v1.26
	h-0.09c-0.9,0-1.64,0.3-2.21,0.91C64.13,51.58,63.83,52.47,63.83,53.62z"/>
<path class="st0" d="M68.73,52.39h5.07c-0.06-0.77-0.3-1.39-0.71-1.87c-0.46-0.54-1.05-0.81-1.79-0.81c-0.68,0-1.26,0.25-1.73,0.76
	C69.08,50.98,68.81,51.62,68.73,52.39L68.73,52.39z M68.73,53.25c0.08,0.82,0.39,1.48,0.93,1.96c0.51,0.47,1.12,0.7,1.84,0.7
	c0.94,0,1.77-0.37,2.48-1.11l0.73,0.65c-0.88,0.98-1.96,1.48-3.24,1.48c-1.11,0-2.03-0.38-2.77-1.14c-0.77-0.77-1.16-1.76-1.16-2.97
	c0-1.15,0.36-2.12,1.08-2.91c0.72-0.8,1.62-1.19,2.69-1.19c1.13,0,2.03,0.41,2.71,1.22c0.64,0.77,0.96,1.75,0.96,2.95
	c0,0.15-0.01,0.27-0.02,0.36L68.73,53.25L68.73,53.25z"/>
<path class="st0" d="M77.41,52.25v4.5h-1.17v-7.86h1.17v1.37c0.62-1.02,1.52-1.54,2.69-1.54c0.93,0,1.67,0.29,2.21,0.86
	s0.81,1.34,0.81,2.29v4.88h-1.17v-4.59c0-0.74-0.19-1.32-0.57-1.74c-0.38-0.42-0.92-0.63-1.6-0.63s-1.24,0.23-1.69,0.68
	C77.64,50.93,77.41,51.52,77.41,52.25L77.41,52.25z"/>
<path class="st0" d="M91.02,52.81c0-0.88-0.29-1.62-0.87-2.21c-0.56-0.56-1.22-0.84-1.98-0.84c-0.79,0-1.44,0.27-1.95,0.81
	c-0.55,0.56-0.82,1.3-0.82,2.24c0,0.91,0.27,1.65,0.81,2.21c0.54,0.56,1.19,0.84,1.96,0.84c0.76,0,1.42-0.29,1.99-0.86
	C90.73,54.44,91.02,53.71,91.02,52.81L91.02,52.81z M92.14,56.75h-1.17v-1.58c-0.79,1.17-1.79,1.75-3.01,1.75
	c-1,0-1.87-0.35-2.59-1.06c-0.78-0.78-1.17-1.79-1.17-3.03s0.39-2.25,1.17-3.03c0.72-0.72,1.58-1.08,2.59-1.08
	c1.24,0,2.24,0.56,3.01,1.67v-4.75h1.17V56.75L92.14,56.75z"/>
<path class="st0" d="M99.37,54.55c0,0.73-0.26,1.31-0.79,1.73s-1.2,0.63-2.01,0.63c-1.22,0-2.3-0.39-3.26-1.16l0.59-0.84
	c0.89,0.67,1.8,1,2.72,1c0.48,0,0.87-0.11,1.17-0.34c0.3-0.23,0.46-0.53,0.46-0.91v-0.03c0-0.35-0.2-0.65-0.59-0.88
	c-0.26-0.15-0.72-0.32-1.37-0.5c-0.82-0.23-1.41-0.47-1.76-0.7c-0.56-0.37-0.84-0.88-0.84-1.52V51c0-0.67,0.25-1.21,0.75-1.63
	c0.5-0.42,1.14-0.62,1.92-0.62c1.01,0,1.96,0.29,2.83,0.87l-0.53,0.88c-0.78-0.51-1.56-0.76-2.33-0.76c-0.46,0-0.82,0.11-1.1,0.32
	s-0.42,0.49-0.42,0.82v0.03c0,0.33,0.21,0.61,0.62,0.84c0.24,0.13,0.71,0.3,1.4,0.52c0.79,0.24,1.36,0.49,1.72,0.73
	c0.54,0.39,0.81,0.89,0.81,1.52L99.37,54.55L99.37,54.55z"/>
<linearGradient id="SVGID_1_" gradientUnits="userSpaceOnUse" x1="-1135.093" y1="-2.8514" x2="-1135.0021" y2="-2.8514" gradientTransform="matrix(136.9891 203.1006 -203.1006 136.9891 154931.7188 230964.3906)">
	<stop  offset="0" style="stop-color:#8D9BCE"/>
	<stop  offset="1" style="stop-color:#3A3F96"/>
	<stop  offset="1" style="stop-color:#3A3F96"/>
</linearGradient>
<path class="st1" d="M26.67,41.53l-3.72-2.14c-0.04-0.39-0.06-0.79-0.06-1.19c0-2.39,0.67-4.62,1.83-6.52
	c-2.25-0.07-4.54,0.47-6.63,1.68c-0.9,0.52-1.71,1.13-2.43,1.82c-4.07,3.91-5.11,10.22-2.17,15.32c2.27,3.93,6.35,6.17,10.58,6.27
	c2.23,0.05,4.49-0.49,6.56-1.68c0.36-0.21,0.7-0.43,1.03-0.66v-4.26v-5.75L26.67,41.53L26.67,41.53z"/>
<linearGradient id="SVGID_2_" gradientUnits="userSpaceOnUse" x1="-1137.4225" y1="-4.4823" x2="-1137.3314" y2="-4.4823" gradientTransform="matrix(9.141218e-09 203.1402 -203.1402 9.141218e-09 -874.6574 231100.1562)">
	<stop  offset="0" style="stop-color:#B4D44F"/>
	<stop  offset="1" style="stop-color:#66BC45"/>
	<stop  offset="1" style="stop-color:#66BC45"/>
</linearGradient>
<path class="st2" d="M46.14,44.78c-1.07-1.95-2.67-3.65-4.74-4.84c-0.34-0.2-0.69-0.38-1.05-0.54l-3.72,2.15l-4.96,2.87v10.02
	c-0.33,0.23-0.67,0.45-1.03,0.66c-2.07,1.19-4.34,1.73-6.56,1.68c1.07,1.98,2.68,3.7,4.77,4.91c0.91,0.52,1.85,0.92,2.82,1.2
	c5.41,1.56,11.39-0.7,14.33-5.79C48.27,53.15,48.17,48.49,46.14,44.78L46.14,44.78z"/>
<linearGradient id="SVGID_3_" gradientUnits="userSpaceOnUse" x1="-1135.2273" y1="1.4793" x2="-1135.1362" y2="1.4793" gradientTransform="matrix(275.7045 0 0 275.7045 313010.1875 -372.6421)">
	<stop  offset="0" style="stop-color:#6ECCDE"/>
	<stop  offset="0.9" style="stop-color:#19BFF0"/>
	<stop  offset="0.9" style="stop-color:#19BFF0"/>
	<stop  offset="1" style="stop-color:#1CB7EB"/>
	<stop  offset="1" style="stop-color:#1CB7EB"/>
</linearGradient>
<path class="st3" d="M47.64,35.19c-1.35-5.48-6.29-9.55-12.19-9.55c-4.54,0-8.52,2.41-10.72,6.03c-1.16,1.9-1.83,4.13-1.83,6.52
	c0,0.4,0.02,0.8,0.06,1.19l3.72,2.14l5,2.88l4.96-2.87l3.72-2.15c0.35,0.16,0.7,0.34,1.05,0.54c2.07,1.19,3.67,2.89,4.74,4.84
	c1.18-1.91,1.86-4.17,1.86-6.58C48,37.16,47.87,36.15,47.64,35.19z"/>
<linearGradient id="SVGID_4_" gradientUnits="userSpaceOnUse" x1="-1129.6853" y1="9.5806" x2="-1129.5942" y2="9.5806" gradientTransform="matrix(62.9307 -46.149 46.149 62.9307 70673.8594 -52678.0469)">
	<stop  offset="0" style="stop-color:#4CB648"/>
	<stop  offset="1" style="stop-color:#098145"/>
	<stop  offset="1" style="stop-color:#098145"/>
</linearGradient>
<path class="st4" d="M31.67,54.43c-0.33,0.23-0.67,0.45-1.03,0.66c-2.07,1.19-4.34,1.73-6.56,1.68c0.41,0.75,0.89,1.47,1.45,2.13
	C28.01,58.07,30.14,56.49,31.67,54.43z"/>
<linearGradient id="SVGID_5_" gradientUnits="userSpaceOnUse" x1="-1124.0784" y1="-3.6996" x2="-1123.9873" y2="-3.6996" gradientTransform="matrix(47.8047 35.7328 -35.7328 47.8047 53646.4414 40383.7109)">
	<stop  offset="0" style="stop-color:#0975B4"/>
	<stop  offset="1" style="stop-color:#0C9ED7"/>
	<stop  offset="1" style="stop-color:#0C9ED7"/>
</linearGradient>
<path class="st5" d="M40.35,39.39c0.37,0.17,0.69,0.34,1.05,0.54c2.07,1.19,3.67,2.89,4.73,4.84c0.45-0.73,0.83-1.5,1.12-2.32
	C45.3,40.73,42.9,39.68,40.35,39.39z"/>
<linearGradient id="SVGID_6_" gradientUnits="userSpaceOnUse" x1="-1134.5542" y1="-9.9804" x2="-1134.4631" y2="-9.9804" gradientTransform="matrix(4.674711e-09 103.8838 -103.8838 4.674711e-09 -1013.5701 117891.5859)">
	<stop  offset="0" style="stop-color:#6D86C3"/>
	<stop  offset="1" style="stop-color:#3A3F96"/>
	<stop  offset="1" style="stop-color:#3A3F96"/>
</linearGradient>
<path class="st6" d="M22.96,39.38c-0.04-0.4-0.06-0.78-0.06-1.19c0-2.39,0.67-4.62,1.83-6.52c-0.78-0.02-1.56,0.03-2.34,0.15
	C21.12,33.3,21.93,37.03,22.96,39.38z"/>
</svg>
